<svg xmlns="http://www.w3.org/2000/svg" xmlns:xlink="http://www.w3.org/1999/xlink" width="39" height="38" viewBox="0 0 39 38">
  <defs>
    <filter id="Tracé_406" x="0" y="0" width="39" height="38" filterUnits="userSpaceOnUse">
      <feOffset dy="1" input="SourceAlpha"/>
      <feGaussianBlur stdDeviation="1.5" result="blur"/>
      <feFlood flood-opacity="0.22"/>
      <feComposite operator="in" in2="blur"/>
      <feComposite in="SourceGraphic"/>
    </filter>
  </defs>
  <g id="Groupe_298" data-name="Groupe 298" transform="translate(-8163.5 -2014.5)">
    <g transform="matrix(1, 0, 0, 1, 8163.5, 2014.5)" filter="url(#Tracé_406)">
      <path id="Tracé_406-2" data-name="Tracé 406" d="M8,0H22a8,8,0,0,1,8,8V21a8,8,0,0,1-8,8H8a8,8,0,0,1-8-8V8A8,8,0,0,1,8,0Z" transform="translate(4.5 3.5)" fill="#fff"/>
    </g>
    <path id="pen_2_" data-name="pen (2)" d="M13.176.57a2.05,2.05,0,0,0-2.9,0L9.554,1.3,1.836,9.013l-.016.017s0,.008-.008.008-.021.024-.029.037,0,0,0,.008-.012.021-.021.033,0,.008-.008.012-.008.021-.012.033,0,0,0,.008L.022,14.318a.4.4,0,0,0,.1.418.412.412,0,0,0,.291.119.483.483,0,0,0,.131-.021l5.145-1.717s0,0,.008,0a.148.148,0,0,0,.037-.017.015.015,0,0,0,.008,0l.041-.025c.012-.008.025-.02.037-.029s.008,0,.008-.008.012-.008.017-.016l8.443-8.443a2.05,2.05,0,0,0,0-2.9ZM5.556,12.155,2.7,9.3,9.841,2.168l2.851,2.851ZM2.3,10.062l2.491,2.491L1.054,13.8ZM13.708,4l-.434.438L10.423,1.586l.439-.438a1.229,1.229,0,0,1,1.737,0l1.114,1.114A1.233,1.233,0,0,1,13.708,4Zm0,0" transform="translate(8175.137 2025.145)" stroke="#000" stroke-width="0.3"/>
  </g>
</svg>
