<svg id="_x31__stroke" xmlns="http://www.w3.org/2000/svg" width="26" height="26" viewBox="0 0 26 26">
  <g id="Google" transform="translate(0 0)">
    <rect id="Rectangle_95" data-name="Rectangle 95" width="26" height="26" fill="none"/>
    <path id="Tracé_304" data-name="Tracé 304" d="M6.612,41.321A7.571,7.571,0,0,1,7,38.944l-4.316-3.3a12.893,12.893,0,0,0,0,11.342l4.313-3.3a7.575,7.575,0,0,1-.381-2.367" transform="translate(-0.605 -28.278)" fill="#fbbc05" fill-rule="evenodd"/>
    <path id="Tracé_305" data-name="Tracé 305" d="M19.447,5.239a7.42,7.42,0,0,1,4.721,1.688L27.9,3.2A12.816,12.816,0,0,0,7.938,7.133l4.316,3.3a7.557,7.557,0,0,1,7.193-5.19" transform="translate(-5.862 0.237)" fill="#ea4335" fill-rule="evenodd"/>
    <path id="Tracé_306" data-name="Tracé 306" d="M19.447,81.071a7.557,7.557,0,0,1-7.193-5.19l-4.316,3.3a12.785,12.785,0,0,0,11.509,7.133A12.221,12.221,0,0,0,27.8,83.118l-4.1-3.167a7.933,7.933,0,0,1-4.259,1.12" transform="translate(-5.862 -60.461)" fill="#34a853" fill-rule="evenodd"/>
    <path id="Tracé_307" data-name="Tracé 307" d="M77.7,54.692a10.607,10.607,0,0,0-.292-2.328H65.457v4.948h6.878a5.767,5.767,0,0,1-2.62,3.828l4.1,3.167A12.736,12.736,0,0,0,77.7,54.692" transform="translate(-51.872 -41.65)" fill="#4285f4" fill-rule="evenodd"/>
  </g>
</svg>
