<svg xmlns="http://www.w3.org/2000/svg" width="146.062" height="55.448" viewBox="0 0 146.062 55.448">
  <g id="logo-ht" transform="translate(-57.19 -26.08)">
    <path id="Tracé_1" data-name="Tracé 1" d="M299.75,182.877v-22.45l4.672-1.066v23.517Z" transform="translate(-194.399 -106.817)"/>
    <circle id="Ellipse_1" data-name="Ellipse 1" cx="6.953" cy="6.953" r="6.953" transform="translate(91.647 41.249)" fill="#178a38"/>
    <circle id="Ellipse_2" data-name="Ellipse 2" cx="6.278" cy="6.278" r="6.278" transform="translate(117.181 34.245)" fill="#178a38"/>
    <path id="Tracé_2" data-name="Tracé 2" d="M275.386,107.9a5.414,5.414,0,0,1-3.367,5.013,3.967,3.967,0,0,0-4.648-2.49c-.079.018-.155.044-.232.068l-1.678.4-22.585,5.4a8.282,8.282,0,0,1-4.013-.3,7.283,7.283,0,0,1-3.761-3.185,19.53,19.53,0,0,0,2.9.641,20.239,20.239,0,0,0,5.972-.308c.53-.091,1.1-.01,1.731-.155,4.916-1.13,11.218-2.52,11.218-2.52.5-.212,4.158-.985,4.6-1.191,1.084-.506,4.217-1.481,4.217-1.694,0-2.611,1.023-2.9,1.7-4.281a3.882,3.882,0,0,1,3.35-.751,5.4,5.4,0,0,1,4.595,5.349Z" transform="translate(-142.583 -61.235)" fill="#17963e"/>
    <circle id="Ellipse_3" data-name="Ellipse 3" cx="5.422" cy="5.422" r="5.422" transform="translate(95.753 35.432)" fill="#178a38"/>
    <path id="Tracé_3" data-name="Tracé 3" d="M284.523,97.211l-18.908,4.479-4.8-3.6,10.97-8.558,15.733-2.3Z" transform="translate(-163.191 -49.008)" fill="#5fa138"/>
    <circle id="Ellipse_4" data-name="Ellipse 4" cx="6.169" cy="6.169" r="6.169" transform="translate(93.879 39.754)" fill="#139e40"/>
    <circle id="Ellipse_5" data-name="Ellipse 5" cx="11.113" cy="11.113" r="11.113" transform="translate(103.858 26.08)" fill="#5fa138"/>
    <path id="Tracé_4" data-name="Tracé 4" d="M357.875,158.68a3.951,3.951,0,0,1,.2-2.45l-6.385,1.527,1.086,4.543,6.385-1.527A3.955,3.955,0,0,1,357.875,158.68Z" transform="translate(-236.026 -104.308)"/>
    <g id="Groupe_1" data-name="Groupe 1" transform="translate(57.19 55.909)">
      <path id="Tracé_5" data-name="Tracé 5" d="M72.155,187.226v9.235h-4.7v-7.93a2.479,2.479,0,0,0-2.579-2.77c-1.847,0-2.988,1.467-2.988,3.477v7.223h-4.7V176.31h4.7v7.93a5.451,5.451,0,0,1,4.916-2.635C70.036,181.605,72.155,183.805,72.155,187.226Z" transform="translate(-57.19 -176.31)"/>
      <path id="Tracé_6" data-name="Tracé 6" d="M140.56,218.717V204.08h4.672v14.637Z" transform="translate(-124.007 -198.566)"/>
      <path id="Tracé_7" data-name="Tracé 7" d="M187.261,216.777c0,4.156-3.2,6.789-7.93,6.789a11.858,11.858,0,0,1-6.519-1.928l1.63-3.177a8.12,8.12,0,0,0,4.535,1.467c2.254,0,3.612-1.2,3.612-3.014v-1.549a5.066,5.066,0,0,1-4.209,1.956c-3.693,0-6.3-2.825-6.3-7.088,0-4.156,2.526-6.926,6.193-6.926a5.093,5.093,0,0,1,4.319,1.956V203.47h4.672v13.307Zm-4.67-6.409c0-2.146-1.223-3.584-3.042-3.584-1.847,0-3.1,1.467-3.1,3.584,0,2.091,1.249,3.558,3.1,3.558C181.368,213.925,182.591,212.46,182.591,210.367Z" transform="translate(-149.268 -197.946)"/>
    </g>
    <g id="Groupe_2" data-name="Groupe 2" transform="translate(121.555 61.214)">
      <path id="Tracé_8" data-name="Tracé 8" d="M612.458,210.32v9.008H607.9v-7.738a2.417,2.417,0,0,0-2.464-2.73c-1.721.054-2.782,1.457-2.782,3.391v7.074H598.07v-7.738c0-1.7-.927-2.73-2.438-2.73-1.749.054-2.835,1.457-2.835,3.391v7.074H588.24V205.042H592.8V207.4a5.188,5.188,0,0,1,4.716-2.571,4.78,4.78,0,0,1,4.769,3.232,5.181,5.181,0,0,1,5.035-3.232C610.442,204.836,612.458,206.982,612.458,210.32Z" transform="translate(-547.163 -204.473)"/>
      <path id="Tracé_9" data-name="Tracé 9" d="M733.03,218.269c0,4.054-3.127,6.624-7.738,6.624a11.558,11.558,0,0,1-6.36-1.882l1.59-3.1a7.921,7.921,0,0,0,4.426,1.432c2.2,0,3.524-1.166,3.524-2.941v-1.511a4.938,4.938,0,0,1-4.106,1.908c-3.6,0-6.147-2.756-6.147-6.916,0-4.054,2.464-6.757,6.042-6.757a4.972,4.972,0,0,1,4.213,1.908v-1.749h4.557v12.983Zm-4.559-6.254c0-2.093-1.191-3.5-2.968-3.5-1.8,0-3.02,1.432-3.02,3.5,0,2.041,1.219,3.471,3.02,3.471C727.28,215.486,728.471,214.056,728.471,212.015Z" transform="translate(-651.335 -204.71)"/>
      <path id="Tracé_10" data-name="Tracé 10" d="M395.455,208.327v9.56h-4.591V216.2a5.354,5.354,0,0,1-4.481,1.9c-3.123,0-5.023-1.9-5.023-4.591,0-2.77,1.982-4.4,5.621-4.428h3.856v-.216c0-1.44-.951-2.309-2.851-2.309a10.3,10.3,0,0,0-4.372,1.221l-1.33-3.1a15.456,15.456,0,0,1,6.789-1.656C393.093,203.032,395.428,205.014,395.455,208.327Zm-4.618,4.591v-1.3h-2.96c-1.412,0-2.119.488-2.119,1.575,0,1.058.76,1.737,2.065,1.737A2.96,2.96,0,0,0,390.837,212.918Z" transform="translate(-381.36 -203.03)"/>
      <path id="Tracé_11" data-name="Tracé 11" d="M476.345,210.788c0,4.509-3.2,7.5-7.984,7.5-4.807,0-8.012-2.988-8.012-7.5s3.2-7.468,8.012-7.468C473.141,203.318,476.345,206.278,476.345,210.788Zm-11.27.054c0,2.281,1.33,3.8,3.286,3.8,1.928,0,3.258-1.521,3.258-3.8,0-2.254-1.33-3.8-3.258-3.8C466.406,207.039,465.076,208.588,465.076,210.841Z" transform="translate(-444.666 -203.262)"/>
      <rect id="Rectangle_23" data-name="Rectangle 23" width="6.219" height="2.702" transform="translate(33.268 6.713)"/>
    </g>
    <g id="Groupe_3" data-name="Groupe 3" transform="translate(168.68 58.132)">
      <path id="Tracé_12" data-name="Tracé 12" d="M618.819,187.51H618.7l.119,0v0Z" transform="translate(-618.7 -187.51)" fill="#fff"/>
    </g>
    <g id="Groupe_4" data-name="Groupe 4" transform="translate(168.348 59.544)">
      <path id="Tracé_13" data-name="Tracé 13" d="M617.149,194.62h-.119l.119,0v0Z" transform="translate(-617.03 -194.62)" fill="#fff"/>
    </g>
    <path id="Tracé_14" data-name="Tracé 14" d="M269.966,202.953l-9.85,2.357-1.086-4.543,9.85-2.357Z" transform="translate(-161.764 -138.113)"/>
    <path id="Tracé_15" data-name="Tracé 15" d="M260.432,217.464a3.96,3.96,0,0,1,3.26.653V210.27H259.02v7.843A4,4,0,0,1,260.432,217.464Z" transform="translate(-161.756 -147.618)"/>
    <circle id="Ellipse_6" data-name="Ellipse 6" cx="1.986" cy="1.986" r="1.986" transform="translate(97.613 71.721)"/>
    <circle id="Ellipse_7" data-name="Ellipse 7" cx="1.555" cy="1.555" r="1.555" transform="translate(115.835 28.729)" fill="#fff"/>
    <g id="Groupe_5" data-name="Groupe 5" transform="translate(108.073 33.615)">
      <path id="Tracé_16" data-name="Tracé 16" d="M319.307,72.26l-5.847-5.212V64.03h2.184v2.039l5.117,4.561Z" transform="translate(-313.46 -64.03)" fill="#fff"/>
    </g>
    <path id="Tracé_17" data-name="Tracé 17" d="M277.769,110.214a11.127,11.127,0,0,1-6.945,5.025l-22.333,5.272,2.808,1.167,24.638-5.953-.882-.868C277.91,114.072,278.66,108.757,277.769,110.214Z" transform="translate(-153.317 -67.228)" fill="#17963e"/>
    <g id="Groupe_6" data-name="Groupe 6" transform="translate(104.93 41.442)">
      <path id="Tracé_18" data-name="Tracé 18" d="M302.721,114.744l-2.184.522v-7.41l-2.907-2.845,1.527-1.561,3.564,3.487Z" transform="translate(-297.63 -103.45)" fill="#fff"/>
    </g>
    <g id="Groupe_7" data-name="Groupe 7" transform="translate(98.6 41.442)">
      <path id="Tracé_19" data-name="Tracé 19" d="M272.471,116.036l-2.184.5v-5.284l-4.537-3.778.077-4.029,2.184.04-.058,2.976,4.517,3.761Z" transform="translate(-265.75 -103.45)" fill="#fff"/>
    </g>
    <path id="Tracé_20" data-name="Tracé 20" d="M370.51,140.33" transform="translate(-251.109 -91.565)" fill="none" stroke="#fff" stroke-miterlimit="10" stroke-width="11"/>
    <circle id="Ellipse_8" data-name="Ellipse 8" cx="1.555" cy="1.555" r="1.555" transform="translate(98.295 39.697)" fill="#fff"/>
    <g id="Groupe_8" data-name="Groupe 8" transform="translate(113.702 30.051)">
      <path id="Tracé_21" data-name="Tracé 21" d="M343.994,67.841l-2.184.536V52.2l2.581-2.216V46.08h2.184v4.91l-2.581,2.216Z" transform="translate(-341.81 -46.08)" fill="#fff"/>
    </g>
    <circle id="Ellipse_9" data-name="Ellipse 9" cx="1.555" cy="1.555" r="1.555" transform="translate(121.698 34.397)" fill="#fff"/>
    <g id="Groupe_9" data-name="Groupe 9" transform="translate(118.344 35.535)">
      <path id="Tracé_22" data-name="Tracé 22" d="M367.374,89.793l-2.184.443V79.929l3.794-3.068V73.7h2.184v4.362l-3.794,2.867Z" transform="translate(-365.19 -73.7)" fill="#fff"/>
    </g>
    <path id="Tracé_23" data-name="Tracé 23" d="M394.578,144.515a5.415,5.415,0,0,1-6.558-2.021l1.678-.4c.077-.024.153-.05.232-.068A3.967,3.967,0,0,1,394.578,144.515Z" transform="translate(-265.143 -92.836)" fill="#fff"/>
    <circle id="Ellipse_10" data-name="Ellipse 10" cx="1.928" cy="1.928" r="1.928" transform="translate(123.783 51.521)"/>
    <path id="Tracé_24" data-name="Tracé 24" d="M346.641,175.974h-4.6v-24.5l4.6-1.078Z" transform="translate(-228.292 -99.636)"/>
  </g>
</svg>
